HIERARCHY
ROOT Hips
{
  OFFSET -125.086 92.215 135.881
  CHANNELS 6 Xposition Yposition Zposition Zrotation Xrotation Yrotation
  JOINT LeftUpLeg
  {
    OFFSET 8.64259 1.95398 -2.38835
    CHANNELS 3 Zrotation Xrotation Yrotation
    JOINT LeftLeg
    {
      OFFSET 43.7702 0 0
      CHANNELS 3 Zrotation Xrotation Yrotation
      JOINT LeftFoot
      {
        OFFSET 40.6238 0 0
        CHANNELS 3 Zrotation Xrotation Yrotation
        JOINT LeftToeBase
        {
          OFFSET 12.7242 0 0
          CHANNELS 3 Zrotation Xrotation Yrotation
          End Site
          {
            OFFSET 0 0 0
          }
        }
      }
    }
  }
  JOINT RightUpLeg
  {
    OFFSET -8.2249 1.95398 -2.59336
    CHANNELS 3 Zrotation Xrotation Yrotation
    JOINT RightLeg
    {
      OFFSET 43.5653 0 0
      CHANNELS 3 Zrotation Xrotation Yrotation
      JOINT RightFoot
      {
        OFFSET 40.6238 0 0
        CHANNELS 3 Zrotation Xrotation Yrotation
        JOINT RightToeBase
        {
          OFFSET 12.7242 0 0
          CHANNELS 3 Zrotation Xrotation Yrotation
          End Site
          {
            OFFSET 0 0 0
          }
        }
      }
    }
  }
  JOINT Spine
  {
    OFFSET 0.165834 0.87714 6.61349
    CHANNELS 3 Zrotation Xrotation Yrotation
    JOINT Spine1
    {
      OFFSET 7.38963 1.71661e-005 0
      CHANNELS 3 Zrotation Xrotation Yrotation
      JOINT Spine2
      {
        OFFSET 11.9445 1.14441e-005 0
        CHANNELS 3 Zrotation Xrotation Yrotation
        JOINT Spine3
        {
          OFFSET 14.7254 4.19617e-005 0
          CHANNELS 3 Zrotation Xrotation Yrotation
          JOINT Spine4
          {
            OFFSET 10.9679 0 0
            CHANNELS 3 Zrotation Xrotation Yrotation
            JOINT RightShoulder
            {
              OFFSET 2.46616 -1.6653 3.69651
              CHANNELS 3 Zrotation Xrotation Yrotation
              JOINT RightArm
              {
                OFFSET 13.0012 0 0
                CHANNELS 3 Zrotation Xrotation Yrotation
                JOINT RightForeArm
                {
                  OFFSET 28.7848 1.52588e-005 0
                  CHANNELS 3 Zrotation Xrotation Yrotation
                  JOINT RightHand
                  {
                    OFFSET 26.5688 1.52588e-005 0
                    CHANNELS 3 Zrotation Xrotation Yrotation
                    End Site
                    {
                      OFFSET 0 0 0
                    }
                  }
                }
              }
            }
            JOINT LeftShoulder
            {
              OFFSET 2.38034 -1.29275 -3.7523
              CHANNELS 3 Zrotation Xrotation Yrotation
              JOINT LeftArm
              {
                OFFSET 16.3182 6.10352e-005 0
                CHANNELS 3 Zrotation Xrotation Yrotation
                JOINT LeftForeArm
                {
                  OFFSET 27.0901 0 0
                  CHANNELS 3 Zrotation Xrotation Yrotation
                  JOINT LeftHand
                  {
                    OFFSET 24.5451 1.52588e-005 0
                    CHANNELS 3 Zrotation Xrotation Yrotation
                    End Site
                    {
                      OFFSET 0 0 0
                    }
                  }
                }
              }
            }
            JOINT Neck
            {
              OFFSET 5.0226 -0.0266342 0
              CHANNELS 3 Zrotation Xrotation Yrotation
              JOINT Head
              {
                OFFSET 6.69363 2.86102e-005 0
                CHANNELS 3 Zrotation Xrotation Yrotation
                End Site
                {
                  OFFSET 0 0 0
                }
              }
            }
          }
        }
      }
    }
  }
}
MOTION
Frames:	12
Frame Time:	0.0416667
-2.97853 9.3469 -57.1999 174.79 0.0998269 176.29 -172.859 2.72371 90.4486 -7.94369 -18.1557 -2.2394 44.984 -5.90615 -9.76811 22.6532 -0.661398 6.98941 173.867 3.50011 83.2231 -7.253 8.23228 -1.27403 42.2025 6.37967 27.7566 25.8655 1.68729 -9.69298 -0.27307 5.61546 -89.7524 15.6438 -0.414962 0.568621 3.97285 -0.389731 0.588393 -18.5623 -0.565354 0.413421 1.45035 -0.565355 0.413438 104.68 -41.1049 -77.7534 20.7986 -6.75548 4.67348 6.41945 -68.2509 -8.44959 0.382048 0.0519075 3.98087 -74.8884 -40.4553 101.907 -31.8264 -19.5273 -7.3231 -176.404 85.1989 179.964 -6.73597 0.152566 -10.7441 23.3856 7.24438 10.7439 -42.4177 6.12782 -7.98837 
-3.01865 9.31952 -57.2183 174.508 0.432288 176.415 -172.767 2.61788 90.6224 -8.20668 -18.2402 -2.19118 44.9417 -5.94287 -10.0958 22.5903 -0.644935 6.95145 173.968 3.07011 83.4081 -7.13457 8.04922 -1.34813 42.0279 6.42801 27.3224 26.4821 1.58434 -10.0902 -0.299157 5.65322 -89.7544 15.5685 -0.467837 0.566594 3.89749 -0.442388 0.586517 -18.6378 -0.616855 0.400952 1.37486 -0.616854 0.400949 104.657 -40.5715 -77.7612 21.5653 -5.98433 4.60323 5.69752 -69.0202 -8.47335 1.15202 0.0966183 2.90269 -75.0597 -39.9911 101.642 -32.3044 -19.4621 -7.33677 -176.284 85.3467 179.963 -6.64145 0.150327 -10.8217 23.2074 7.08291 10.53 -42.1468 5.9678 -7.77622 
-3.05188 9.32118 -57.2022 174.533 0.300088 176.516 -172.579 2.81351 90.8109 -8.26929 -19.8466 -2.42168 45.1969 -5.83448 -10.4539 20.8112 -0.226342 4.88726 174.117 3.16777 83.5649 -7.08809 8.40302 -1.41313 41.894 6.44994 27.5359 26.4997 1.57787 -10.0745 -0.288697 5.66742 -89.7743 15.54 -0.457195 0.525904 3.86905 -0.433609 0.545508 -18.6663 -0.594116 0.36418 1.34638 -0.594115 0.364185 104.733 -40.724 -77.6356 21.3387 -5.9571 4.33882 5.17239 -69.6289 -8.9509 1.41648 0.118301 3.09072 -74.995 -40.3227 101.733 -32.2521 -19.4537 -7.78119 -176.208 85.2773 179.963 -7.24073 0.19783 -11.1445 23.3516 7.05298 10.7406 -41.8832 5.80158 -7.69872 
-3.07329 9.32741 -57.1932 174.428 -0.0453339 176.679 -172.51 3.37154 90.9577 -8.60653 -19.6638 -2.41735 45.1583 -5.92759 -10.6586 20.9728 -0.29149 5.2147 174.272 3.31981 83.7968 -6.75523 8.59387 -1.40562 41.709 6.44608 27.3784 26.5215 1.5506 -9.89676 -0.293347 5.67973 -89.8055 15.5154 -0.482102 0.466823 3.84445 -0.461084 0.487581 -18.6911 -0.600111 0.300351 1.32154 -0.60011 0.300343 104.741 -40.7412 -77.6224 21.2305 -6.03305 3.76488 5.57409 -69.5187 -8.62064 1.39531 0.118866 3.22255 -74.8182 -40.7345 102.009 -32.1786 -19.3017 -8.57824 -176.259 85.3571 179.963 -7.36699 0.207816 -11.198 24.4037 7.38376 11.2527 -42.7438 6.12933 -8.36036 
-3.17385 9.3493 -57.1928 174.093 -0.00351991 176.987 -172.21 3.62999 91.3698 -9.03815 -19.2686 -2.4524 45.313 -5.94434 -10.7808 20.9133 -0.253646 5.02468 174.503 3.12334 84.2104 -6.71627 9.05016 -1.43876 41.8495 6.43222 27.3003 26.3888 1.59174 -9.9634 -0.322377 5.75092 -89.8532 15.3731 -0.563751 0.382214 3.70221 -0.546384 0.40664 -18.8337 -0.652552 0.195101 1.17888 -0.652556 0.195104 104.816 -40.78 -77.4944 21.2658 -5.79421 3.18969 5.40964 -68.8974 -8.45212 1.24524 0.0966115 2.52744 -74.7031 -41.2203 102.173 -32.0075 -18.9679 -9.41242 -176.431 85.7931 179.959 -7.42433 0.203203 -11.1268 25.4949 7.61896 11.5534 -43.2771 6.26195 -8.6263 
-3.18522 9.34636 -57.202 173.888 -0.329438 177.087 -172.329 4.09066 91.3747 -9.14732 -19.2026 -2.33352 45.377 -5.91028 -10.8884 20.7411 -0.238608 4.98478 174.619 3.3911 84.3543 -6.6664 9.38787 -1.42963 41.7546 6.48276 27.2744 26.363 1.64429 -10.3341 -0.342271 5.79855 -89.8786 15.2779 -0.615985 0.338228 3.60705 -0.600501 0.365004 -18.9292 -0.68916 0.137456 1.08347 -0.689159 0.137446 104.94 -40.977 -77.2892 20.9027 -5.73541 1.97444 6.60207 -68.9227 -7.35375 1.34143 0.11354 3.14735 -74.3752 -41.9265 102.676 -31.757 -18.6452 -10.6496 -176.542 86.0883 179.956 -7.45755 0.201756 -11.1366 26.504 7.94001 12.2655 -43.379 6.4158 -9.24377 
-3.2662 9.3771 -57.2062 173.528 -0.429338 177.403 -172.127 4.61334 91.7347 -9.76194 -18.4494 -2.2951 45.4669 -5.98279 -10.9803 21.0807 -0.286802 5.16539 174.89 3.29903 84.7706 -6.5352 10.2549 -1.49461 41.7497 6.53219 27.4617 26.0626 1.66704 -9.91515 -0.364807 5.87983 -89.941 15.1152 -0.692069 0.222667 3.4444 -0.681596 0.252898 -19.0922 -0.726995 0.00436906 0.920384 -0.726994 0.00435599 105.073 -41.2985 -77.0776 20.3921 -5.7417 1.01094 6.83282 -68.3571 -7.0823 1.17143 0.0982565 2.94863 -74.1323 -42.7239 103.022 -31.5757 -18.335 -11.9883 -176.592 86.4085 179.952 -7.39963 0.202205 -11.0647 28.0738 8.46578 13.0708 -44.3314 6.80188 -10.0513 
-3.31662 9.3793 -57.1776 173.345 -0.703549 177.608 -171.986 5.09616 91.9685 -10.0784 -18.2284 -2.33896 45.5498 -6.00199 -11.0698 21.3742 -0.31715 5.26803 175.097 3.50971 85.0611 -6.51175 10.3583 -1.50725 41.8507 6.51706 27.1305 26.2335 1.60663 -9.7737 -0.365433 5.96173 -89.999 14.9511 -0.722419 0.109047 3.28034 -0.716915 0.140738 -19.2564 -0.721793 -0.113125 0.756233 -0.721792 -0.113121 105.229 -41.3803 -76.8118 20.1065 -5.70914 -0.287077 7.5758 -68.0402 -6.18924 1.15088 0.0961167 2.90225 -73.7758 -43.6291 103.539 -31.3978 -17.9463 -13.6445 -176.648 86.7433 179.947 -7.43172 0.205096 -11.0527 29.035 8.76609 14.3232 -43.6818 6.54586 -10.4956 
-3.34924 9.39116 -57.1851 173.104 -0.904629 177.838 -172.014 5.57783 92.1289 -10.4652 -18.132 -2.19581 45.568 -6.0391 -11.3905 21.4869 -0.3441 5.391 175.318 3.62391 85.3596 -6.45466 11.111 -1.56859 41.6172 6.58637 27.4087 26.4976 1.59194 -10.1844 -0.378671 6.06245 -90.0605 14.7493 -0.779373 -0.00828107 3.07859 -0.778975 0.0260357 -19.4583 -0.74085 -0.242147 0.554334 -0.740848 -0.242138 105.371 -41.5938 -76.5811 19.6008 -5.7066 -1.75744 8.39699 -67.6404 -5.43675 1.08901 0.0965191 3.21517 -73.3173 -44.6659 104.198 -31.3152 -17.8077 -15.4366 -176.428 86.8644 179.945 -7.59326 0.216482 -11.096 31.5863 9.82905 15.4583 -45.8005 7.57063 -12.1319 
-3.41605 9.40596 -57.173 172.877 -1.06913 178.011 -171.919 5.89809 92.313 -10.6009 -17.5292 -2.18567 45.8262 -5.94858 -11.1886 21.3952 -0.397511 5.70518 175.422 3.67531 85.5946 -6.38637 11.3511 -1.51104 41.8563 6.56623 27.1441 26.3615 1.62095 -10.1436 -0.379372 6.17227 -90.1105 14.5294 -0.80565 -0.107361 2.85868 -0.809592 -0.0717988 -19.6782 -0.736135 -0.344546 0.334455 -0.736133 -0.344543 105.526 -41.6347 -76.3145 19.4786 -5.39689 -3.1283 8.54243 -67.445 -4.9867 1.36636 0.110373 2.85123 -72.9088 -45.6485 104.765 -31.0636 -17.3192 -17.3184 -176.572 87.2114 179.938 -7.63207 0.21962 -11.0928 33.2906 10.4352 16.4596 -46.2762 7.84342 -13.0366 
-3.45204 9.4328 -57.1716 172.787 -1.17376 178.236 -171.738 6.182 92.5857 -10.9073 -17.6047 -2.22168 45.9283 -5.97081 -11.3794 21.1859 -0.296275 5.19414 175.69 3.69739 85.9187 -6.31414 11.3667 -1.63169 41.7163 6.62779 27.009 26.7339 1.53176 -10.1773 -0.35201 6.29047 -90.1693 14.2924 -0.780384 -0.230861 2.62163 -0.78979 -0.196295 -19.9148 -0.674924 -0.454737 0.0978161 -0.674924 -0.454738 105.684 -41.4972 -76.0285 19.4988 -5.18411 -4.59213 9.59566 -66.879 -3.74961 1.28363 0.10265 2.74741 -72.7473 -46.5219 104.939 -30.9786 -16.879 -19.0315 -176.591 87.6967 179.925 -7.60089 0.220018 -10.9874 34.9395 11.0635 17.6454 -46.7963 8.07786 -14.0342 
-3.46388 9.469 -57.1554 172.76 -1.28782 178.432 -171.617 6.45043 92.7742 -11.2171 -17.5512 -2.2399 46.1209 -5.94752 -11.4311 21.3278 -0.27201 5.0291 175.803 3.78067 86.1284 -6.32081 11.6966 -1.61414 41.6508 6.63564 26.9581 26.5927 1.4848 -9.50617 -0.322873 6.41628 -90.2353 14.0403 -0.754897 -0.369609 2.36953 -0.770427 -0.336026 -20.1664 -0.608918 -0.579397 -0.153827 -0.608918 -0.579406 105.849 -41.5227 -75.7432 19.1329 -5.14807 -6.17989 10.7218 -65.693 -2.56564 0.935737 0.0765391 2.5537 -72.3217 -47.64 105.497 -30.9177 -16.5895 -21.0121 -176.428 87.9343 179.917 -7.54982 0.219079 -11.0067 37.1086 12.0283 19.021 -48.0493 8.62967 -15.3073 
